<?xml version="1.0" encoding="utf-8"?>
<!-- Uploaded to: SVGRepo, www.svgrepo.com, Transformed by: SVGRepo Tools -->
<svg xmlns="http://www.w3.org/2000/svg" xmlns:xlink="http://www.w3.org/1999/xlink" version="1.1" id="windycloud"  viewBox="0 0 192 221.1676" enable-background="new 0 0 192 221.1676" xml:space="preserve" width="512" height="512">
<g>
	<path fill="#5CB0FF" d="M68,129.1676h87.2969c0.1445-0.0254,0.293-0.0449,0.4414-0.0527   C171.5859,128.1481,184,114.1168,184,97.1676c0-17.3438-13.2207-31.6953-29.4727-31.9941   c-1.7578-0.0332-3.2871-1.209-3.7715-2.8984C146.5254,47.4918,132.2324,37.1676,116,37.1676c-19.8496,0-36,15.252-36,34   c0,0.9883,0.0449,1.9648,0.1328,2.9297c0.1191,1.3398-0.4395,2.6484-1.4902,3.4863c-1.0488,0.8379-2.4512,1.0938-3.7305,0.6777   c-2.2324-0.7266-4.5566-1.0938-6.9121-1.0938c-13.2344,0-24,11.6641-24,26S54.7656,129.1676,68,129.1676z"/>
	<path fill="#1C71DA" d="M68,137.1676h88c0.334,0,0.6621-0.041,0.9785-0.1211C176.6777,135.4352,192,118.0719,192,97.1676   c0-20.6523-15.2031-37.9141-34.4395-39.8242C151.4609,40.6168,134.7793,29.1676,116,29.1676   c-23.6543,0-43.0098,17.9082-43.9629,40.2676c-1.334-0.1777-2.6816-0.2676-4.0371-0.2676c-17.6445,0-32,15.252-32,34   S50.3555,137.1676,68,137.1676z M68,77.1676c2.3555,0,4.6797,0.3672,6.9121,1.0938c1.2793,0.416,2.6816,0.1602,3.7305-0.6777   c1.0508-0.8379,1.6094-2.1465,1.4902-3.4863C80.0449,73.1324,80,72.1559,80,71.1676c0-18.748,16.1504-34,36-34   c16.2324,0,30.5254,10.3242,34.7559,25.1074c0.4844,1.6895,2.0137,2.8652,3.7715,2.8984C170.7793,65.4723,184,79.8239,184,97.1676   c0,16.9492-12.4141,30.9805-28.2617,31.9473c-0.1484,0.0078-0.2969,0.0273-0.4414,0.0527H68c-13.2344,0-24-11.6641-24-26   S54.7656,77.1676,68,77.1676z"/>
	<path fill="#1C71DA" d="M188,149.1676H20c-0.3293,0-0.6223,0.1123-0.9287,0.1875c-0.3064-0.0752-0.5994-0.1875-0.9287-0.1875   c-5.5918,0-10.1426-5.3828-10.1426-12s4.5508-12,10.1426-12c2.209,0,4-1.791,4-4s-1.791-4-4-4   c-10.0039,0-18.1426,8.9727-18.1426,20s8.1387,20,18.1426,20c0.3293,0,0.6223-0.1123,0.9287-0.1875   c0.3064,0.0752,0.5994,0.1875,0.9287,0.1875h168c2.209,0,4-1.791,4-4S190.209,149.1676,188,149.1676z"/>
	<path fill="#1C71DA" d="M164,169.1676c0-2.209-1.791-4-4-4H40c-2.209,0-4,1.791-4,4s1.791,4,4,4h120   C162.209,173.1676,164,171.3766,164,169.1676z"/>
	<path fill="#1C71DA" d="M177.8855,181.7037c-0.5696-0.3118-1.1904-0.5361-1.8855-0.5361H62c-2.209,0-4,1.791-4,4s1.791,4,4,4   h111.8574c5.5918,0,10.1426,5.3828,10.1426,12s-4.5508,12-10.1426,12c-2.209,0-4,1.791-4,4s1.791,4,4,4   c10.0039,0,18.1426-8.9727,18.1426-20C192,191.671,185.9507,183.7343,177.8855,181.7037z"/>
</g>
<path fill="#FF5D5D" d="M24.3854,47.9998c-1.0239,0-2.0474-0.3906-2.8286-1.1714c-1.562-1.5625-1.562-4.0947,0-5.6572  l14.1421-14.1421c1.5625-1.5615,4.0947-1.5615,5.6572,0c1.562,1.5625,1.562,4.0947,0,5.6572L27.214,46.8284  C26.4328,47.6091,25.4093,47.9998,24.3854,47.9998z"/>
<path fill="#FF5D5D" d="M38.5275,47.9998c-1.0239,0-2.0474-0.3906-2.8286-1.1714L21.5568,32.6863  c-1.562-1.5625-1.562-4.0947,0-5.6572c1.5625-1.5615,4.0947-1.5615,5.6572,0l14.1421,14.1421c1.562,1.5625,1.562,4.0947,0,5.6572  C40.5749,47.6091,39.5514,47.9998,38.5275,47.9998z"/>
<path fill="#00D40B" d="M22.3854,211.9998c-7.7197,0-14-6.2803-14-14s6.2803-14,14-14s14,6.2803,14,14  S30.1051,211.9998,22.3854,211.9998z M22.3854,191.9998c-3.3086,0-6,2.6914-6,6s2.6914,6,6,6s6-2.6914,6-6  S25.694,191.9998,22.3854,191.9998z"/>
<path fill="#FFC504" d="M171.6989,30.6272L171.6989,30.6272c-1.061,0-2.0781-0.4214-2.8286-1.1719l-11.3135-11.314  c-1.562-1.562-1.562-4.0942,0-5.6567l11.3135-11.3135c1.5625-1.5615,4.0952-1.5615,5.6567,0l11.314,11.3135  c0.7505,0.7505,1.1719,1.7676,1.1719,2.8286s-0.4214,2.0781-1.1714,2.8286l-11.314,11.314  C173.777,30.2058,172.7599,30.6272,171.6989,30.6272z M166.0421,15.3132l5.6567,5.6572l5.6572-5.6572l-5.6572-5.6567  L166.0421,15.3132z"/>
</svg>
